<svg width="36" height="36" viewBox="0 0 36 36" fill="none" xmlns="http://www.w3.org/2000/svg">
<g opacity="0.4">
<path fill-rule="evenodd" clip-rule="evenodd" d="M16.1833 3.85709C16.2156 3.8571 16.2483 3.85712 16.2814 3.85712H19.7186C19.7517 3.85712 19.7844 3.8571 19.8167 3.85709C20.4197 3.85688 20.8735 3.85672 21.3094 3.93187C22.4023 4.12028 23.405 4.65691 24.168 5.46173C24.4723 5.78276 24.7239 6.16043 25.0583 6.6623C25.0761 6.68915 25.0943 6.71636 25.1127 6.74393L25.2226 6.90882C25.3884 7.1575 25.4232 7.20698 25.4544 7.24492C25.6702 7.50749 25.9812 7.67393 26.3193 7.70784C26.3682 7.71274 26.4286 7.71426 26.7276 7.71426C26.7665 7.71426 26.8049 7.71425 26.8427 7.71424C27.5815 7.71405 28.1039 7.71392 28.5632 7.78793C31.0266 8.18484 32.958 10.1163 33.3549 12.5796C33.4289 13.039 33.4288 13.5613 33.4286 14.3002C33.4286 14.338 33.4286 14.3763 33.4286 14.4153V19.9285C33.4286 20.6386 32.853 21.2143 32.1429 21.2143C31.4328 21.2143 30.8572 20.6386 30.8572 19.9285V14.4153C30.8572 13.515 30.853 13.2171 30.8162 12.9887C30.5957 11.6201 29.5227 10.5471 28.1542 10.3266C27.9258 10.2898 27.6279 10.2857 26.7276 10.2857C26.7118 10.2857 26.6961 10.2857 26.6806 10.2857C26.4546 10.2858 26.2565 10.2859 26.0627 10.2664C25.0482 10.1647 24.1152 9.66538 23.4678 8.87767C23.3442 8.72723 23.2343 8.56234 23.109 8.37425C23.1005 8.36134 23.0918 8.34833 23.083 8.3352L22.9731 8.1703C22.5605 7.55148 22.4354 7.37168 22.3019 7.23085C21.9204 6.82844 21.419 6.56013 20.8726 6.46592C20.6814 6.43296 20.4623 6.42854 19.7186 6.42854H16.2814C15.5377 6.42854 15.3187 6.43296 15.1274 6.46592C14.581 6.56013 14.0797 6.82844 13.6982 7.23085C13.5647 7.37168 13.4395 7.55149 13.0269 8.1703L12.917 8.33519C12.9083 8.34833 12.8996 8.36135 12.891 8.37426C12.7657 8.5624 12.6559 8.72722 12.5322 8.87767C11.8848 9.66538 10.9518 10.1647 9.93729 10.2664C9.74351 10.2859 9.54547 10.2858 9.31941 10.2857C9.3039 10.2857 9.28826 10.2857 9.27248 10.2857C8.37215 10.2857 8.07426 10.2898 7.84585 10.3266C6.47732 10.5471 5.40431 11.6201 5.18381 12.9887C5.147 13.2171 5.14288 13.515 5.14288 14.4153V19.2857C5.14288 21.1071 5.14388 22.3958 5.22619 23.4033C5.30728 24.3957 5.46082 25.0015 5.70341 25.4776C6.19648 26.4453 6.98323 27.2321 7.95092 27.7251C8.42704 27.9677 9.03283 28.1213 10.0253 28.2024C11.0328 28.2847 12.3215 28.2857 14.1429 28.2857H19.9286C20.6387 28.2857 21.2143 28.8613 21.2143 29.5714C21.2143 30.2815 20.6387 30.8571 19.9286 30.8571H14.0866C12.3341 30.8571 10.9404 30.8571 9.81591 30.7653C8.66442 30.6712 7.68255 30.4744 6.78352 30.0163C5.33199 29.2767 4.15185 28.0966 3.41225 26.645C2.95417 25.746 2.75738 24.7641 2.6633 23.6127C2.57143 22.4882 2.57144 21.0944 2.57145 19.3419V14.4153C2.57145 14.3763 2.57144 14.338 2.57143 14.3002C2.57124 13.5613 2.57111 13.039 2.64512 12.5796C3.04203 10.1163 4.97345 8.18484 7.4368 7.78793C7.89615 7.71392 8.4185 7.71405 9.15737 7.71424C9.19517 7.71425 9.23353 7.71426 9.27248 7.71426C9.57141 7.71426 9.63182 7.71274 9.6807 7.70784C10.0189 7.67393 10.3299 7.50749 10.5457 7.24492C10.5769 7.20697 10.6116 7.15754 10.7775 6.90882L10.8874 6.74393C10.9058 6.71635 10.9239 6.68914 10.9418 6.66228C11.2761 6.16043 11.5277 5.78275 11.832 5.46173C12.595 4.65691 13.5977 4.12028 14.6906 3.93187C15.1265 3.85672 15.5803 3.85688 16.1833 3.85709ZM18 14.1428C15.8698 14.1428 14.1429 15.8697 14.1429 18C14.1429 20.1302 15.8698 21.8571 18 21.8571C20.1303 21.8571 21.8572 20.1302 21.8572 18C21.8572 15.8697 20.1303 14.1428 18 14.1428ZM11.5714 18C11.5714 14.4496 14.4496 11.5714 18 11.5714C21.5504 11.5714 24.4286 14.4496 24.4286 18C24.4286 21.5504 21.5504 24.4285 18 24.4285C14.4496 24.4285 11.5714 21.5504 11.5714 18ZM28.2857 21.8571C28.9958 21.8571 29.5714 22.4327 29.5714 23.1428V25.7143H32.1429C32.853 25.7143 33.4286 26.2899 33.4286 27C33.4286 27.7101 32.853 28.2857 32.1429 28.2857H29.5714V30.8571C29.5714 31.5672 28.9958 32.1428 28.2857 32.1428C27.5757 32.1428 27 31.5672 27 30.8571V28.2857H24.4286C23.7185 28.2857 23.1429 27.7101 23.1429 27C23.1429 26.2899 23.7185 25.7143 24.4286 25.7143H27V23.1428C27 22.4327 27.5757 21.8571 28.2857 21.8571Z" fill="white"/>
</g>
</svg>
