<svg width="16" height="17" viewBox="0 0 16 17" fill="none" xmlns="http://www.w3.org/2000/svg">
<path d="M8.26666 5.83334C8.26666 5.50197 7.99803 5.23334 7.66666 5.23334C7.33529 5.23334 7.06666 5.50197 7.06666 5.83334V8.83334C7.06666 9.08344 7.2218 9.30732 7.45599 9.39513L10.1227 10.3951C10.4329 10.5115 10.7788 10.3543 10.8951 10.044C11.0115 9.73374 10.8543 9.38789 10.544 9.27154L8.26666 8.41754V5.83334Z" fill="white"/>
<path fill-rule="evenodd" clip-rule="evenodd" d="M7.99999 1.9C4.35491 1.9 1.39999 4.85492 1.39999 8.5C1.39999 12.1451 4.35491 15.1 7.99999 15.1C11.6451 15.1 14.6 12.1451 14.6 8.5C14.6 4.85492 11.6451 1.9 7.99999 1.9ZM2.59999 8.5C2.59999 5.51767 5.01766 3.1 7.99999 3.1C10.9823 3.1 13.4 5.51767 13.4 8.5C13.4 11.4823 10.9823 13.9 7.99999 13.9C5.01766 13.9 2.59999 11.4823 2.59999 8.5Z" fill="white"/>
</svg>
