<svg width="29" height="29" viewBox="0 0 29 29" fill="none" xmlns="http://www.w3.org/2000/svg">
<g opacity="0.4" filter="url(#filter0_d_672_3118)">
<mask id="path-1-outside-1_672_3118" maskUnits="userSpaceOnUse" x="5" y="5" width="19" height="19" fill="black">
<rect fill="white" x="5" y="5" width="19" height="19"/>
<path fill-rule="evenodd" clip-rule="evenodd" d="M14.5 12.8304L20.9847 6.34578C21.4457 5.88474 22.1932 5.88474 22.6542 6.34578C23.1153 6.80681 23.1153 7.5543 22.6542 8.01534L16.1696 14.5L22.6542 20.9847C23.1153 21.4457 23.1153 22.1932 22.6542 22.6542C22.1932 23.1153 21.4457 23.1153 20.9847 22.6542L14.5 16.1696L8.01533 22.6542C7.5543 23.1153 6.80681 23.1153 6.34578 22.6542C5.88474 22.1932 5.88474 21.4457 6.34578 20.9847L12.8304 14.5L6.34578 8.01533C5.88474 7.5543 5.88474 6.80681 6.34578 6.34578C6.80681 5.88474 7.5543 5.88474 8.01533 6.34578L14.5 12.8304Z"/>
</mask>
<path fill-rule="evenodd" clip-rule="evenodd" d="M14.5 12.8304L20.9847 6.34578C21.4457 5.88474 22.1932 5.88474 22.6542 6.34578C23.1153 6.80681 23.1153 7.5543 22.6542 8.01534L16.1696 14.5L22.6542 20.9847C23.1153 21.4457 23.1153 22.1932 22.6542 22.6542C22.1932 23.1153 21.4457 23.1153 20.9847 22.6542L14.5 16.1696L8.01533 22.6542C7.5543 23.1153 6.80681 23.1153 6.34578 22.6542C5.88474 22.1932 5.88474 21.4457 6.34578 20.9847L12.8304 14.5L6.34578 8.01533C5.88474 7.5543 5.88474 6.80681 6.34578 6.34578C6.80681 5.88474 7.5543 5.88474 8.01533 6.34578L14.5 12.8304Z" fill="white"/>
<path d="M20.9847 6.34578L20.6508 6.01187H20.6508L20.9847 6.34578ZM14.5 12.8304L14.1661 13.1644L14.5 13.4983L14.8339 13.1644L14.5 12.8304ZM22.6542 6.34578L22.9881 6.01187L22.9881 6.01187L22.6542 6.34578ZM22.6542 8.01534L22.9881 8.34925V8.34925L22.6542 8.01534ZM16.1696 14.5L15.8356 14.1661L15.5017 14.5L15.8356 14.8339L16.1696 14.5ZM22.6542 20.9847L22.9881 20.6508V20.6508L22.6542 20.9847ZM22.6542 22.6542L22.9881 22.9881V22.9881L22.6542 22.6542ZM20.9847 22.6542L20.6508 22.9881V22.9881L20.9847 22.6542ZM14.5 16.1696L14.8339 15.8356L14.5 15.5017L14.1661 15.8356L14.5 16.1696ZM8.01533 22.6542L7.68142 22.3203L8.01533 22.6542ZM6.34578 22.6542L6.01187 22.9881L6.01187 22.9881L6.34578 22.6542ZM6.34578 20.9847L6.67969 21.3186L6.34578 20.9847ZM12.8304 14.5L13.1644 14.8339L13.4983 14.5L13.1644 14.1661L12.8304 14.5ZM6.34578 8.01533L6.01187 8.34925H6.01187L6.34578 8.01533ZM6.34578 6.34578L6.67969 6.67969H6.67969L6.34578 6.34578ZM8.01533 6.34578L7.68142 6.67969H7.68142L8.01533 6.34578ZM20.6508 6.01187L14.1661 12.4965L14.8339 13.1644L21.3186 6.67969L20.6508 6.01187ZM22.9881 6.01187C22.3427 5.36642 21.2962 5.36642 20.6508 6.01187L21.3186 6.67969C21.5952 6.40307 22.0437 6.40307 22.3203 6.67969L22.9881 6.01187ZM22.9881 8.34925C23.6336 7.7038 23.6336 6.65732 22.9881 6.01187L22.3203 6.67969C22.5969 6.95631 22.5969 7.4048 22.3203 7.68142L22.9881 8.34925ZM16.5035 14.8339L22.9881 8.34925L22.3203 7.68142L15.8356 14.1661L16.5035 14.8339ZM22.9881 20.6508L16.5035 14.1661L15.8356 14.8339L22.3203 21.3186L22.9881 20.6508ZM22.9881 22.9881C23.6336 22.3427 23.6336 21.2962 22.9881 20.6508L22.3203 21.3186C22.5969 21.5952 22.5969 22.0437 22.3203 22.3203L22.9881 22.9881ZM20.6508 22.9881C21.2962 23.6336 22.3427 23.6336 22.9881 22.9881L22.3203 22.3203C22.0437 22.5969 21.5952 22.5969 21.3186 22.3203L20.6508 22.9881ZM14.1661 16.5035L20.6508 22.9881L21.3186 22.3203L14.8339 15.8356L14.1661 16.5035ZM8.34924 22.9881L14.8339 16.5035L14.1661 15.8356L7.68142 22.3203L8.34924 22.9881ZM6.01187 22.9881C6.65732 23.6336 7.7038 23.6336 8.34924 22.9881L7.68142 22.3203C7.4048 22.5969 6.95631 22.5969 6.67969 22.3203L6.01187 22.9881ZM6.01187 20.6508C5.36642 21.2962 5.36642 22.3427 6.01187 22.9881L6.67969 22.3203C6.40307 22.0437 6.40307 21.5952 6.67969 21.3186L6.01187 20.6508ZM12.4965 14.1661L6.01187 20.6508L6.67969 21.3186L13.1644 14.8339L12.4965 14.1661ZM6.01187 8.34925L12.4965 14.8339L13.1644 14.1661L6.67969 7.68142L6.01187 8.34925ZM6.01187 6.01187C5.36642 6.65731 5.36642 7.7038 6.01187 8.34925L6.67969 7.68142C6.40307 7.4048 6.40307 6.95631 6.67969 6.67969L6.01187 6.01187ZM8.34925 6.01187C7.7038 5.36642 6.65731 5.36642 6.01186 6.01187L6.67969 6.67969C6.95631 6.40307 7.4048 6.40307 7.68142 6.67969L8.34925 6.01187ZM14.8339 12.4965L8.34925 6.01187L7.68142 6.67969L14.1661 13.1644L14.8339 12.4965Z" fill="black" fill-opacity="0.12" mask="url(#path-1-outside-1_672_3118)"/>
</g>
<defs>
<filter id="filter0_d_672_3118" x="0.80561" y="0.805549" width="27.3888" height="27.3889" filterUnits="userSpaceOnUse" color-interpolation-filters="sRGB">
<feFlood flood-opacity="0" result="BackgroundImageFix"/>
<feColorMatrix in="SourceAlpha" type="matrix" values="0 0 0 0 0 0 0 0 0 0 0 0 0 0 0 0 0 0 127 0" result="hardAlpha"/>
<feOffset/>
<feGaussianBlur stdDeviation="2.36111"/>
<feColorMatrix type="matrix" values="0 0 0 0 0 0 0 0 0 0 0 0 0 0 0 0 0 0 0.16 0"/>
<feBlend mode="normal" in2="BackgroundImageFix" result="effect1_dropShadow_672_3118"/>
<feBlend mode="normal" in="SourceGraphic" in2="effect1_dropShadow_672_3118" result="shape"/>
</filter>
</defs>
</svg>
