<svg width="24" height="24" viewBox="0 0 24 24" fill="none" xmlns="http://www.w3.org/2000/svg">
<path fill-rule="evenodd" clip-rule="evenodd" d="M6.24237 8.90001C6.62105 10.061 7.71255 10.9 9.00001 10.9C10.2875 10.9 11.379 10.061 11.7576 8.90001C14.5051 8.90001 17.2526 8.90001 20 8.90001C20.4971 8.90001 20.9 8.49706 20.9 8.00001C20.9 7.50295 20.4971 7.10001 20 7.10001C17.2526 7.10001 14.5051 7.10001 11.7576 7.10001C11.7479 7.06964 11.7609 7.1101 11.7576 7.10001C11.379 5.93897 10.2875 5.10001 9.00001 5.10001C7.71255 5.10001 6.62105 5.93897 6.24237 7.10001C5.49492 7.10001 4.74746 7.10001 4.00001 7.10001C3.50295 7.10001 3.10001 7.50295 3.10001 8.00001C3.10001 8.49706 3.50295 8.90001 4.00001 8.90001C4.74746 8.90001 5.49492 8.90001 6.24237 8.90001ZM9.00001 6.90001C8.39249 6.90001 7.90001 7.39249 7.90001 8.00001C7.90001 8.60752 8.39249 9.10001 9.00001 9.10001C9.60752 9.10001 10.1 8.60752 10.1 8.00001C10.1 7.39249 9.60752 6.90001 9.00001 6.90001Z" fill="white"/>
<path fill-rule="evenodd" clip-rule="evenodd" d="M3.10001 16C3.10001 15.5029 3.50295 15.1 4.00001 15.1C6.74746 15.1 9.49492 15.1 12.2424 15.1C12.621 13.939 13.7126 13.1 15 13.1C16.2875 13.1 17.379 13.939 17.7576 15.1C17.7576 15.1 19.4786 15.1 20 15.1C20.4971 15.1 20.9 15.5029 20.9 16C20.9 16.4971 20.4971 16.9 20 16.9C19.7778 16.9 17.7576 16.9 17.7576 16.9C17.379 18.061 16.2875 18.9 15 18.9C13.7126 18.9 12.621 18.061 12.2424 16.9C9.49492 16.9 6.74746 16.9 4.00001 16.9C3.50295 16.9 3.10001 16.4971 3.10001 16ZM13.9 16C13.9 15.3925 14.3925 14.9 15 14.9C15.6075 14.9 16.1 15.3925 16.1 16C16.1 16.6075 15.6075 17.1 15 17.1C14.3925 17.1 13.9 16.6075 13.9 16Z" fill="white"/>
</svg>
