<svg width="24" height="24" viewBox="0 0 24 24" fill="none" xmlns="http://www.w3.org/2000/svg">
<path d="M11.0489 2.92705C11.3483 2.00574 12.6517 2.00574 12.9511 2.92705L14.4697 7.60081C14.6035 8.01284 14.9875 8.2918 15.4207 8.2918H20.335C21.3037 8.2918 21.7065 9.53141 20.9228 10.1008L16.947 12.9894C16.5966 13.244 16.4499 13.6954 16.5838 14.1074L18.1024 18.7812C18.4017 19.7025 17.3472 20.4686 16.5635 19.8992L12.5878 17.0106C12.2373 16.756 11.7627 16.756 11.4122 17.0106L7.43648 19.8992C6.65276 20.4686 5.59828 19.7025 5.89763 18.7812L7.41623 14.1074C7.5501 13.6954 7.40345 13.244 7.05296 12.9894L3.07722 10.1008C2.29351 9.53141 2.69628 8.2918 3.66501 8.2918H8.57929C9.01252 8.2918 9.39647 8.01284 9.53035 7.60081L11.0489 2.92705Z" fill="white" fill-opacity="0.3"/>
<path fill-rule="evenodd" clip-rule="evenodd" d="M12 2.23602C11.5993 2.23602 11.1986 2.46635 11.0489 2.92701L9.53034 7.60077C9.39647 8.01279 9.01251 8.29175 8.57929 8.29175H3.665C2.69628 8.29175 2.2935 9.53137 3.07722 10.1008L7.05296 12.9893C7.40344 13.244 7.5501 13.6953 7.41623 14.1073L5.89763 18.7811C5.59828 19.7024 6.65276 20.4685 7.43647 19.8991L11.4122 17.0106C11.5875 16.8833 11.7937 16.8196 12 16.8196V2.23602Z" fill="#FFC40C"/>
</svg>
