<svg width="24" height="24" viewBox="0 0 24 24" fill="none" xmlns="http://www.w3.org/2000/svg">
<path d="M14.2978 1.43478C15.0301 1.60572 15.6749 1.97796 16.1891 2.52673C16.7104 3.08303 17.0137 3.67244 17.3401 4.82461L18.1309 7.769C18.2739 8.30246 17.9573 8.8508 17.4238 8.99374C16.8904 9.13668 16.342 8.8201 16.1991 8.28663L15.4786 5.59795L15.366 5.19565C15.151 4.46707 14.9895 4.17153 14.7297 3.89425C14.4857 3.6339 14.1906 3.46353 13.8432 3.38243C13.4731 3.29606 13.1364 3.30392 12.398 3.48204L11.9932 3.58564L6.86577 4.95954C6.01178 5.18837 5.61202 5.35416 5.35695 5.54274L5.29601 5.5904L5.16207 5.70853C4.90172 5.95248 4.73135 6.24757 4.65025 6.59502C4.55668 6.9959 4.57371 7.35767 4.79799 8.23347L7.52146 18.4021L7.6341 18.8043C7.84907 19.5329 8.01062 19.8285 8.27044 20.1058C8.5144 20.3661 8.80949 20.5365 9.15694 20.6176C9.55815 20.7112 9.90225 20.6939 10.7643 20.4774C11.2999 20.3429 11.8432 20.6681 11.9777 21.2037C12.1123 21.7393 11.7871 22.2826 11.2515 22.4172C10.1026 22.7057 9.4457 22.7387 8.70234 22.5652C7.96998 22.3943 7.32524 22.022 6.81103 21.4733C6.28975 20.917 5.98646 20.3276 5.66001 19.1754L2.92161 8.96259C2.56698 7.63909 2.51694 6.93586 2.7026 6.14042C2.85455 5.48944 3.16555 4.90768 3.63273 4.41205L3.81525 4.23026L3.99408 4.07252C4.48978 3.66088 5.07133 3.38817 6.0854 3.10011L6.34813 3.02769L11.4756 1.65379C12.7991 1.29916 13.5023 1.24912 14.2978 1.43478ZM18.3685 11C20.3687 11 22.0001 12.5915 22.0001 14.5673C22.0001 16.4763 21.2284 17.4183 18.2201 19.7009L16.8924 20.7084C16.3648 21.1087 15.6353 21.1087 15.1078 20.7084L13.78 19.7009C10.7717 17.4183 10.0001 16.4763 10.0001 14.5673C10.0001 12.5915 11.6314 11 13.6316 11C14.4608 11 15.2275 11.2237 15.914 11.6597L16.0001 11.717L16.0861 11.6597C16.7039 11.2673 17.3867 11.0469 18.1216 11.0067L18.3685 11Z" fill="#2688EB"/>
</svg>
