<svg width="24" height="24" viewBox="0 0 24 24" fill="none" xmlns="http://www.w3.org/2000/svg">
<path d="M13.8136 14.7934L13.1846 15.4227C13.0165 15.591 12.7661 15.6463 12.5428 15.5645C11.9172 15.3344 11.1346 14.7501 10.1949 13.8101C9.25606 12.8709 8.67119 12.088 8.442 11.4613C8.36 11.2381 8.41499 10.9876 8.58291 10.8193L9.21277 10.1901C10.3732 9.02926 10.4793 7.20099 9.45639 5.98753L8.71788 5.10948C7.87496 4.10661 6.35635 4.00556 5.32499 4.88276C4.94142 5.21342 4.65306 5.64055 4.48971 6.12C4.41911 6.32871 4.37352 6.54506 4.35389 6.76452C3.97615 9.56934 5.32839 12.5134 8.40975 15.5959C11.4911 18.6784 14.4333 20.0303 17.2379 19.6524C17.9665 19.5828 18.6403 19.2349 19.119 18.681C19.9967 17.6501 19.8948 16.13 18.8932 15.2868L18.0154 14.5472C16.8007 13.5256 14.974 13.6326 13.8136 14.7934ZM11.4068 12.598C11.8556 13.047 12.2471 13.3875 12.5635 13.6195C14.3829 11.7994 17.214 11.6335 19.1196 13.2361L19.9967 13.9752C21.7355 15.439 21.9095 18.0474 20.4155 19.802C19.6483 20.6898 18.5685 21.2474 17.4667 21.3513C14.0544 21.8111 10.6229 20.2343 7.19786 16.808C3.77276 13.3817 2.19586 9.94816 2.64692 6.61175C2.67863 6.25723 2.75228 5.90773 2.86753 5.56701C3.12932 4.79864 3.59144 4.11412 4.21485 3.57675C5.96057 2.09198 8.56686 2.26591 10.0293 4.00585L10.7666 4.88247C12.3708 6.78562 12.2065 9.61973 10.4238 11.403C10.6174 11.7574 10.9577 12.1488 11.4068 12.598Z" fill="white"/>
</svg>
