<svg width="24" height="24" viewBox="0 0 24 24" fill="none" xmlns="http://www.w3.org/2000/svg">
<path d="M19.7143 10.2652C19.7143 6.0164 16.2608 2.57141 12 2.57141C7.73916 2.57141 4.28571 6.0164 4.28571 10.2652C4.28571 13.2931 6.15358 16.9478 9.8403 21.288C10.8491 22.4756 12.6339 22.6241 13.8266 21.6196C13.9467 21.5185 14.0581 21.4076 14.1597 21.288C17.8464 16.9478 19.7143 13.2931 19.7143 10.2652ZM12.7196 20.3164C12.2497 20.7121 11.5466 20.6536 11.1492 20.1857C7.70006 16.1252 6 12.7988 6 10.2652C6 6.9584 8.68665 4.27833 12 4.27833C15.3134 4.27833 18 6.9584 18 10.2652C18 12.7988 16.2999 16.1252 12.8508 20.1857C12.8108 20.2328 12.7669 20.2765 12.7196 20.3164ZM8.57143 10.2525C8.57143 8.36762 10.1069 6.83871 12 6.83871C13.8931 6.83871 15.4286 8.36762 15.4286 10.2525C15.4286 12.1375 13.8931 13.6664 12 13.6664C10.1069 13.6664 8.57143 12.1375 8.57143 10.2525ZM10.2857 10.2525C10.2857 11.1948 11.0537 11.9595 12 11.9595C12.9463 11.9595 13.7143 11.1948 13.7143 10.2525C13.7143 9.31033 12.9463 8.54563 12 8.54563C11.0537 8.54563 10.2857 9.31033 10.2857 10.2525Z" fill="white"/>
</svg>
