<svg width="18" height="17" viewBox="0 0 18 17" fill="none" xmlns="http://www.w3.org/2000/svg">
<path d="M15.2779 2.81493C13.7019 1.34375 11.4041 0.5 8.97427 0.5C6.54498 0.5 4.24722 1.34375 2.67175 2.81446C1.19912 4.18946 0.429782 6.02783 0.505042 7.9922L0.734045 10.6133C0.94302 13.2617 2.64791 13.5479 3.37071 13.5479C3.63277 13.5479 3.90887 13.5137 4.18932 13.4482C4.22723 13.6963 4.22397 14.1313 4.22127 14.4697L4.21857 14.9404C4.21368 15.2823 4.20613 15.7998 4.60783 16.1665C4.77404 16.3188 5.07779 16.5 5.57803 16.5H12.3711C12.8714 16.5 13.1746 16.3188 13.3413 16.167C13.7425 15.7998 13.7354 15.2827 13.7306 14.9404L13.7273 14.4707C13.7251 14.1318 13.7213 13.6963 13.7598 13.4483C14.043 13.5142 14.3175 13.5479 14.5784 13.5479C15.3012 13.5479 17.0055 13.2618 17.2151 10.6182L17.4425 8.01958L17.4441 7.99224C17.5193 6.02783 16.75 4.18946 15.2779 2.81493ZM16.0418 7.93455L15.816 10.5234C15.7235 11.6904 15.3066 12.2822 14.5784 12.2822C14.4105 12.2822 14.2227 12.2544 14.0137 12.1982C13.5145 12.0683 13.0819 12.1552 12.7766 12.4326C12.312 12.8544 12.3169 13.5361 12.3245 14.4794L12.3272 14.957C12.3283 15.0351 12.3299 15.1503 12.3223 15.2343H10.841V13.6713H9.71814V15.2343H8.23033V13.6714H7.10798V15.2343H5.62613C5.61909 15.1503 5.62072 15.0351 5.6218 14.956L5.6245 14.478C5.63209 13.5356 5.63694 12.8545 5.17242 12.4326C4.86867 12.1562 4.44639 12.0654 3.92934 12.1997C3.72633 12.2544 3.53846 12.2822 3.37061 12.2822C2.64188 12.2822 2.22608 11.6904 2.13294 10.5185L1.90664 7.93455C1.84926 6.32177 2.47837 4.8164 3.68083 3.69431C4.99383 2.46875 6.92343 1.76562 8.97427 1.76562C11.0257 1.76562 12.9553 2.46875 14.2682 3.69434C15.4707 4.8164 16.1003 6.32177 16.0418 7.93455Z" fill="white"/>
<path d="M8.97485 10.1767C8.63809 10.1767 7.89637 11.6357 7.76103 11.8789C7.62676 12.122 7.89637 12.4873 8.30081 12.3652C8.70524 12.2441 8.97485 11.94 8.97485 11.94C8.97485 11.94 9.24447 12.2441 9.6489 12.3652C10.0528 12.4873 10.323 12.1221 10.1882 11.8789C10.0528 11.6357 9.31214 10.1767 8.97485 10.1767Z" fill="white"/>
<path d="M6.04959 6.22754C4.97921 6.12598 4.01985 6.82716 3.90724 7.79297L3.76212 8.71241C3.64951 9.67872 4.42699 10.543 5.49733 10.6445C6.56879 10.7461 7.52814 10.0454 7.64024 9.0791L7.78535 8.15966C7.89741 7.19338 7.12104 6.3291 6.04959 6.22754Z" fill="white"/>
<path d="M14.0419 7.79297C13.9298 6.82716 12.9698 6.12598 11.8995 6.22754C10.8281 6.3291 10.0517 7.19335 10.1637 8.15966L10.3083 9.0791C10.4209 10.0454 11.3803 10.7461 12.4512 10.6445C13.5221 10.543 14.2996 9.67872 14.187 8.71241L14.0419 7.79297Z" fill="white"/>
</svg>
