<svg width="16" height="17" viewBox="0 0 16 17" fill="none" xmlns="http://www.w3.org/2000/svg">
<path d="M9.9 5.8C9.9 4.75012 9.04988 3.9 8 3.9C6.95013 3.9 6.1 4.75012 6.1 5.8C6.1 6.84988 6.95013 7.7 8 7.7C9.04988 7.7 9.9 6.84988 9.9 5.8ZM11.1 5.8C11.1 7.51262 9.71263 8.9 8 8.9C6.28738 8.9 4.9 7.51262 4.9 5.8C4.9 4.08738 6.28738 2.7 8 2.7C9.71263 2.7 11.1 4.08738 11.1 5.8ZM3.93334 12.7857C3.93334 13.2983 3.87283 13.2333 4.15687 13.2333H11.8431C12.1272 13.2333 12.0667 13.2983 12.0667 12.7857C12.0667 11.524 10.2145 10.7667 8 10.7667C5.78547 10.7667 3.93334 11.524 3.93334 12.7857ZM2.73334 12.7857C2.73334 10.5678 5.18186 9.56666 8 9.56666C10.8181 9.56666 13.2667 10.5678 13.2667 12.7857C13.2667 13.9428 12.8096 14.4333 11.8431 14.4333H4.15687C3.19036 14.4333 2.73334 13.9428 2.73334 12.7857Z" fill="white"/>
</svg>
