<svg width="24" height="24" viewBox="0 0 24 24" fill="none" xmlns="http://www.w3.org/2000/svg">
<path d="M12 16.9286C12.4734 16.9286 12.8571 17.3124 12.8571 17.7857C12.8571 18.2591 12.4734 18.6429 12 18.6429C11.5266 18.6429 11.1429 18.2591 11.1429 17.7857C11.1429 17.3124 11.5266 16.9286 12 16.9286ZM12 12.8572C13.1544 12.8572 14.26 13.1966 15.2012 13.8228C15.4968 14.0194 15.577 14.4185 15.3803 14.7141C15.1836 15.0097 14.7846 15.0899 14.489 14.8932C13.7572 14.4064 12.899 14.1429 12 14.1429C11.1014 14.1429 10.2435 14.4061 9.51196 14.8926C9.21631 15.0892 8.81728 15.0089 8.62069 14.7132C8.4241 14.4176 8.5044 14.0186 8.80005 13.822C9.74097 13.1963 10.8461 12.8572 12 12.8572ZM12 9.00003C14.2759 9.00003 16.4247 9.82899 18.0962 11.3048C18.3624 11.5398 18.3876 11.9461 18.1526 12.2122C17.9177 12.4784 17.5114 12.5036 17.2453 12.2686C15.8065 10.9983 13.9594 10.2857 12 10.2857C10.0407 10.2857 8.19373 10.9982 6.75498 12.2684C6.48882 12.5034 6.08258 12.4781 5.8476 12.212C5.61262 11.9458 5.6379 11.5396 5.90405 11.3046C7.57554 9.8289 9.72428 9.00003 12 9.00003ZM12 5.14288C15.1225 5.14288 18.0701 6.27982 20.3636 8.30437C20.6297 8.53933 20.655 8.94558 20.4201 9.21175C20.1851 9.47792 19.7789 9.50322 19.5127 9.26826C17.452 7.44915 14.8061 6.4286 12 6.4286C9.19419 6.4286 6.54849 7.44898 4.48782 9.26781C4.22163 9.50276 3.81539 9.47744 3.58044 9.21125C3.3455 8.94507 3.37082 8.53882 3.63701 8.30387C5.9304 6.27963 8.87781 5.14288 12 5.14288Z" fill="white"/>
</svg>
